<svg width="360" height="360" viewBox="0 0 360 360" xmlns="http://www.w3.org/2000/svg">
  <g fill="none" stroke="#8B5E34" stroke-width="2.2" stroke-linecap="round" stroke-linejoin="round" opacity="0.14">

    <g>
      <polyline points="26,102 34,83 50,70 70,65 90,70 106,83 114,102"/>
      <line x1="70" y1="110" x2="26" y2="102"/>
      <line x1="70" y1="110" x2="34" y2="83"/>
      <line x1="70" y1="110" x2="50" y2="70"/>
      <line x1="70" y1="110" x2="70" y2="65"/>
      <line x1="70" y1="110" x2="90" y2="70"/>
      <line x1="70" y1="110" x2="106" y2="83"/>
      <line x1="70" y1="110" x2="114" y2="102"/>
    </g>

    <g>
      <polyline points="200,50 240,50"/>
      <polyline points="200,90 240,90"/>
      <polyline points="200,50 212,70 200,90"/>
      <polyline points="240,50 228,70 240,90"/>
      <line x1="206" y1="56" x2="234" y2="84"/>
      <line x1="234" y1="56" x2="206" y2="84"/>
    </g>

    <g>
      <ellipse cx="300" cy="140" rx="9" ry="13"/>
      <line x1="300" y1="128" x2="300" y2="152"/>
      <line x1="296" y1="132" x2="304" y2="132"/>
      <line x1="296" y1="140" x2="304" y2="140"/>
      <line x1="296" y1="148" x2="304" y2="148"/>
    </g>
    <g transform="rotate(20 320 158)">
      <ellipse cx="320" cy="158" rx="9" ry="13"/>
      <line x1="320" y1="146" x2="320" y2="170"/>
      <line x1="316" y1="150" x2="324" y2="150"/>
      <line x1="316" y1="158" x2="324" y2="158"/>
      <line x1="316" y1="166" x2="324" y2="166"/>
    </g>

    <g>
      <polygon points="162,170 178,170 170,184"/>
      <polygon points="167,174 173,174 170,180"/>
    </g>
    <g transform="rotate(15 41 248)">
      <polygon points="32,240 50,240 41,256"/>
      <polygon points="37,244 45,244 41,251"/>
    </g>
    <g transform="rotate(-10 250 252)">
      <polygon points="242,244 258,244 250,258"/>
      <polygon points="247,248 253,248 250,254"/>
    </g>

    <g>
      <line x1="260" y1="200" x2="300" y2="170"/>
      <ellipse cx="296" cy="174" rx="2.5" ry="4.5" transform="rotate(-38 296 174)"/>
      <path d="M291,178 q-8,12 -22,10 q-12,-2 -20,10"/>
    </g>

    <g>
      <polygon points="150,260 210,260 198,305 162,305"/>
      <line x1="154" y1="272" x2="206" y2="272"/>
      <line x1="158" y1="284" x2="202" y2="284"/>
      <line x1="161" y1="296" x2="199" y2="296"/>
      <path d="M158,260 q-8,-15 8,-20"/>
      <path d="M202,260 q8,-15 -8,-20"/>
    </g>

    <g>
      <ellipse cx="280" cy="290" rx="24" ry="20"/>
      <rect x="270" y="255" width="20" height="20" rx="4"/>
      <ellipse cx="280" cy="255" rx="14" ry="5"/>
    </g>

    <g>
      <circle cx="130" cy="300" r="3.5"/>
      <circle cx="134" cy="311" r="3.5"/>
      <circle cx="128" cy="322" r="3.5"/>
      <line x1="130" y1="303" x2="134" y2="308"/>
      <line x1="134" y1="314" x2="128" y2="319"/>
    </g>

  </g>
</svg>
